{"title":"Sobre Ruedas (Roll Bounce) DVDRip Spanish By Pintxotortilla.avi","uid":8315839,"size":2345488384,"categoryP":"video","categoryS":"movies","magnet":"?xt=urn:btih:757602240869c5f9049c6e21cba51a4a01211016&amp;dn=Sobre+Ruedas+%28Roll+Bounce%29+DVDRip+Spanish+By+Pintxotortilla.avi&amp;tr=udp%3A%2F%2Ftracker.openbittorrent.com%3A80&amp;tr=udp%3A%2F%2Fopen.demonii.com%3A1337&amp;tr=udp%3A%2F%2Ftracker.coppersurfer.tk%3A6969&amp;tr=udp%3A%2F%2Fexodus.desync.com%3A6969","seeders":0,"leechers":1,"uploader":"intarder","files":-1,"time":1364585322,"description":"General\nComplete name                            : F:IncomingSobre Ruedas (Roll Bounce) DVDRip Spanish By Pintxotortilla.avi\nFormat                                   : AVI\nFormat/Info                              : Audio Video Interleave\nFormat profile                           : OpenDML\nFile size                                : 2.18 GiB\nDuration                                 : 1h 47mn\nOverall bit rate                         : 2 916 Kbps\nWriting application                      : VirtualDubMod 1.5.4.1 (build 2178/release)\nWriting library                          : VirtualDubMod build 2178/release\n\nVideo\nID                                       : 0\nFormat                                   : MPEG-4 Visual\nFormat profile                           : Advanced Simple@L5\nFormat settings, BVOP                    : 1\nFormat settings, QPel                    : No\nFormat settings, GMC                     : No warppoints\nFormat settings, Matrix                  : Custom\nCodec ID                                 : XVID\nCodec ID/Hint                            : XviD\nDuration                                 : 1h 47mn\nBit rate                                 : 2 523 Kbps\nWidth                                    : 720 pixels\nHeight                                   : 320 pixels\nDisplay aspect ratio                     : 2.25:1\nFrame rate                               : 25.000 fps\nColor space                              : YUV\nChroma subsampling                       : 4:2:0\nBit depth                                : 8 bits\nScan type                                : Progressive\nCompression mode                         : Lossy\nBits/(Pixel*Frame)                       : 0.438\nStream size                              : 1.89 GiB (87%)\nWriting library                          : XviD 64\n\nAudio\nID                                       : 1\nFormat                                   : AC-3\nFormat/Info                              : Audio Coding 3\nMode extension                           : CM (complete main)\nFormat settings, Endianness              : Big\nCodec ID                                 : 2000\nDuration                                 : 1h 47mn\nBit rate mode                            : Constant\nBit rate                                 : 384 Kbps\nChannel(s)                               : 6 channels\nChannel positions                        : Front: L C R, Side: L R, LFE\nSampling rate                            : 48.0 KHz\nBit depth                                : 16 bits\nCompression mode                         : Lossy\nStream size                              : 295 MiB (13%)\nAlignment                                : Split accross interleaves\nInterleave, duration                     : 96 ms (2.40 video frames)\nInterleave, preload duration             : 96 ms\nLanguage                                 : Espanol\n\n","torrent":{"xt":"urn:btih:757602240869c5f9049c6e21cba51a4a01211016","amp;dn":"Sobre+Ruedas+%28Roll+Bounce%29+DVDRip+Spanish+By+Pintxotortilla.avi","amp;tr":["udp%3A%2F%2Ftracker.openbittorrent.com%3A80","udp%3A%2F%2Fopen.demonii.com%3A1337","udp%3A%2F%2Ftracker.coppersurfer.tk%3A6969","udp%3A%2F%2Fexodus.desync.com%3A6969"],"infoHash":"757602240869c5f9049c6e21cba51a4a01211016","infoHashBuffer":{"type":"Buffer","data":[117,118,2,36,8,105,197,249,4,156,110,33,203,165,26,74,1,33,16,22]},"announce":[],"urlList":[]}}